<svg width="14" height="14" viewBox="0 0 14 14" fill="none" xmlns="http://www.w3.org/2000/svg">
<path d="M7.00016 0.332031C10.6828 0.332031 13.6682 3.31736 13.6682 7.00003C13.6682 10.682 10.6828 13.6667 7.00016 13.6667C3.3175 13.6674 0.333496 10.682 0.333496 7.00003C0.33283 3.31736 3.3175 0.332031 7.00016 0.332031ZM6.9975 5.83203C6.83412 5.83225 6.67651 5.89246 6.5546 6.00123C6.43268 6.10999 6.35495 6.25974 6.33616 6.42203L6.3315 6.49936L6.33416 10.1674L6.33816 10.2447C6.35679 10.4073 6.43459 10.5574 6.55673 10.6663C6.67887 10.7753 6.83683 10.8355 7.0005 10.8355C7.16417 10.8355 7.32212 10.7753 7.44426 10.6663C7.5664 10.5574 7.6442 10.4073 7.66283 10.2447L7.66683 10.1667L7.66416 6.4987L7.6595 6.4207C7.64023 6.25854 7.56211 6.10909 7.43996 6.0007C7.31781 5.89232 7.16013 5.83254 6.99683 5.8327L6.9975 5.83203ZM7.00083 3.3327C6.77955 3.3327 6.56733 3.4206 6.41087 3.57707C6.2544 3.73354 6.1665 3.94575 6.1665 4.16703C6.1665 4.38831 6.2544 4.60053 6.41087 4.75699C6.56733 4.91346 6.77955 5.00136 7.00083 5.00136C7.11035 5.00132 7.21879 4.97971 7.31996 4.93775C7.42113 4.8958 7.51305 4.83433 7.59046 4.75686C7.66787 4.67938 7.72927 4.58742 7.77114 4.48621C7.81301 4.38501 7.83454 4.27655 7.8345 4.16703C7.83445 4.05751 7.81284 3.94907 7.77088 3.8479C7.72893 3.74673 7.66746 3.65481 7.58999 3.5774C7.51251 3.49999 7.42055 3.43859 7.31935 3.39672C7.21814 3.35485 7.10969 3.33332 7.00016 3.33336L7.00083 3.3327Z" fill="#3D5AF1"/>
</svg>
