<svg width="16" height="16" viewBox="0 0 16 16" fill="none" xmlns="http://www.w3.org/2000/svg">
<path d="M13 3H2V4.585L5.705 8.295L6 8.585V13H8V12H9V13C9 13.2652 8.89464 13.5196 8.70711 13.7071C8.51957 13.8946 8.26522 14 8 14H6C5.73478 14 5.48043 13.8946 5.29289 13.7071C5.10536 13.5196 5 13.2652 5 13V9L1.295 5.295C1.20142 5.20197 1.12717 5.09134 1.07654 4.96948C1.02591 4.84763 0.999896 4.71696 1 4.585V3C1 2.73478 1.10536 2.48043 1.29289 2.29289C1.48043 2.10536 1.73478 2 2 2H13V3Z" fill="#303030"/>
<path d="M14.855 5.64497L13.355 4.14497C13.3085 4.09811 13.2532 4.06091 13.1923 4.03552C13.1314 4.01014 13.066 3.99707 13 3.99707C12.934 3.99707 12.8686 4.01014 12.8077 4.03552C12.7468 4.06091 12.6915 4.09811 12.645 4.14497L8 8.79497V11H10.205L14.855 6.35497C14.9019 6.30849 14.9391 6.25319 14.9644 6.19226C14.9898 6.13133 15.0029 6.06598 15.0029 5.99997C15.0029 5.93396 14.9898 5.86861 14.9644 5.80768C14.9391 5.74675 14.9019 5.69145 14.855 5.64497ZM9.795 9.99997H9V9.20497L11.5 6.70497L12.295 7.49997L9.795 9.99997ZM13 6.79497L12.205 5.99997L13 5.20497L13.795 5.99997L13 6.79497Z" fill="#303030"/>
</svg>
