<svg width="24" height="24" viewBox="0 0 24 24" fill="none" xmlns="http://www.w3.org/2000/svg">
<path d="M21 10.5039H20.25V1.50391H18.75V10.5039H18C17.6023 10.5043 17.221 10.6625 16.9398 10.9437C16.6586 11.2249 16.5004 11.6062 16.5 12.0039V13.5039C16.5004 13.9016 16.6586 14.2829 16.9398 14.5641C17.221 14.8453 17.6023 15.0035 18 15.0039H18.75V22.5039H20.25V15.0039H21C21.3976 15.0033 21.7788 14.8451 22.06 14.5639C22.3412 14.2827 22.4994 13.9015 22.5 13.5039V12.0039C22.4996 11.6062 22.3414 11.2249 22.0602 10.9437C21.779 10.6625 21.3977 10.5043 21 10.5039ZM21 13.5039H18V12.0039H21V13.5039ZM13.5 4.50391H12.75V1.50391H11.25V4.50391H10.5C10.1023 4.5043 9.721 4.66247 9.43978 4.94368C9.15856 5.2249 9.0004 5.6062 9 6.00391V7.50391C9.0004 7.90161 9.15856 8.28291 9.43978 8.56413C9.721 8.84535 10.1023 9.00351 10.5 9.00391H11.25V22.5039H12.75V9.00391H13.5C13.8977 9.00351 14.279 8.84535 14.5602 8.56413C14.8414 8.28291 14.9996 7.90161 15 7.50391V6.00391C14.9996 5.6062 14.8414 5.2249 14.5602 4.94368C14.279 4.66247 13.8977 4.5043 13.5 4.50391ZM13.5 7.50391H10.5V6.00391H13.5V7.50391ZM6 15.0039H5.25V1.50391H3.75V15.0039H3C2.6023 15.0043 2.221 15.1625 1.93978 15.4437C1.65856 15.7249 1.5004 16.1062 1.5 16.5039V18.0039C1.5004 18.4016 1.65856 18.7829 1.93978 19.0641C2.221 19.3453 2.6023 19.5035 3 19.5039H3.75V22.5039H5.25V19.5039H6C6.3977 19.5035 6.779 19.3453 7.06022 19.0641C7.34144 18.7829 7.4996 18.4016 7.5 18.0039V16.5039C7.4996 16.1062 7.34144 15.7249 7.06022 15.4437C6.779 15.1625 6.3977 15.0043 6 15.0039ZM6 18.0039H3V16.5039H6V18.0039Z" fill="#303030"/>
</svg>
