<svg width="14" height="15" viewBox="0 0 14 15" fill="none" xmlns="http://www.w3.org/2000/svg">
<path d="M13 6.00293H12.5V0.00292969H11.5V6.00293H11C10.7349 6.00319 10.4807 6.10864 10.2932 6.29612C10.1057 6.48359 10.0003 6.73779 10 7.00293V8.00293C10.0003 8.26806 10.1057 8.52226 10.2932 8.70974C10.4807 8.89722 10.7349 9.00266 11 9.00293H11.5V14.0029H12.5V9.00293H13C13.2651 9.00253 13.5192 8.89705 13.7067 8.7096C13.8941 8.52215 13.9996 8.26802 14 8.00293V7.00293C13.9997 6.73779 13.8943 6.48359 13.7068 6.29612C13.5193 6.10864 13.2651 6.00319 13 6.00293ZM13 8.00293H11V7.00293H13V8.00293ZM8 2.00293H7.5V0.00292969H6.5V2.00293H6C5.73486 2.00319 5.48066 2.10864 5.29319 2.29612C5.10571 2.48359 5.00026 2.73779 5 3.00293V4.00293C5.00026 4.26806 5.10571 4.52226 5.29319 4.70974C5.48066 4.89722 5.73486 5.00267 6 5.00293H6.5V14.0029H7.5V5.00293H8C8.26513 5.00267 8.51934 4.89722 8.70681 4.70974C8.89429 4.52226 8.99973 4.26806 9 4.00293V3.00293C8.99973 2.73779 8.89429 2.48359 8.70681 2.29612C8.51934 2.10864 8.26513 2.00319 8 2.00293ZM8 4.00293H6V3.00293H8V4.00293ZM3 9.00293H2.5V0.00292969H1.5V9.00293H1C0.734865 9.00319 0.480665 9.10864 0.293186 9.29612C0.105707 9.48359 0.000264738 9.73779 0 10.0029V11.0029C0.000264738 11.2681 0.105707 11.5223 0.293186 11.7097C0.480665 11.8972 0.734865 12.0027 1 12.0029H1.5V14.0029H2.5V12.0029H3C3.26514 12.0027 3.51934 11.8972 3.70681 11.7097C3.89429 11.5223 3.99974 11.2681 4 11.0029V10.0029C3.99974 9.73779 3.89429 9.48359 3.70681 9.29612C3.51934 9.10864 3.26514 9.00319 3 9.00293ZM3 11.0029H1V10.0029H3V11.0029Z" fill="#303030"/>
</svg>
