<svg width="24" height="24" viewBox="0 0 24 24" fill="none" xmlns="http://www.w3.org/2000/svg">
<path d="M16.8375 4.5C17.3835 4.49954 17.9242 4.6081 18.4277 4.81931C18.9313 5.03052 19.3876 5.34014 19.77 5.73C20.5578 6.52979 20.9994 7.60737 20.9994 8.73C20.9994 9.85264 20.5578 10.9302 19.77 11.73L12 19.5975L4.22995 11.73C3.44214 10.9302 3.00054 9.85264 3.00054 8.73C3.00054 7.60737 3.44214 6.52979 4.22995 5.73C4.61252 5.34042 5.06889 5.03096 5.57239 4.81972C6.07589 4.60848 6.61643 4.49968 7.16245 4.49968C7.70847 4.49968 8.24902 4.60848 8.75252 4.81972C9.25602 5.03096 9.71238 5.34042 10.095 5.73L12 7.68L13.8975 5.745C14.2786 5.35049 14.7355 5.0369 15.2406 4.82298C15.7458 4.60906 16.2889 4.49921 16.8375 4.5ZM16.8375 3C16.0917 2.99937 15.3533 3.14764 14.6655 3.43613C13.9778 3.72461 13.3546 4.1475 12.8325 4.68L12 5.52L11.1675 4.68C10.6447 4.14846 10.0213 3.72631 9.33369 3.43814C8.64609 3.14998 7.908 3.00157 7.16245 3.00157C6.41691 3.00157 5.67882 3.14998 4.99121 3.43814C4.30361 3.72631 3.68024 4.14846 3.15745 4.68C2.09386 5.76272 1.49792 7.21977 1.49792 8.7375C1.49792 10.2552 2.09386 11.7123 3.15745 12.795L12 21.75L20.8425 12.795C21.906 11.7123 22.502 10.2552 22.502 8.7375C22.502 7.21977 21.906 5.76272 20.8425 4.68C20.3198 4.14818 19.6965 3.72573 19.0089 3.4373C18.3213 3.14886 17.5831 3.00021 16.8375 3Z" fill="#A0A0A0"/>
</svg>
