<svg width="12" height="12" viewBox="0 0 12 12" fill="none" xmlns="http://www.w3.org/2000/svg">
<g id="Priorisation White">
<path id="Vector 3 (Stroke)" fill-rule="evenodd" clip-rule="evenodd" d="M5.75494 0.663678C5.90104 0.55742 6.09898 0.55742 6.24508 0.663678L11.2451 4.30004C11.4312 4.43539 11.4723 4.69598 11.337 4.88209C11.2016 5.06819 10.941 5.10934 10.7549 4.97399L6.00001 1.51586L1.24508 4.97399C1.05898 5.10934 0.798385 5.06819 0.663036 4.88209C0.527686 4.69598 0.568832 4.43539 0.754938 4.30004L5.75494 0.663678Z" fill="white"/>
<path id="Vector 4 (Stroke)" fill-rule="evenodd" clip-rule="evenodd" d="M5.75494 3.84532C5.90104 3.73906 6.09898 3.73906 6.24508 3.84532L11.2451 7.48168C11.4312 7.61703 11.4723 7.87762 11.337 8.06373C11.2016 8.24983 10.941 8.29098 10.7549 8.15563L6.00001 4.6975L1.24508 8.15563C1.05898 8.29098 0.798385 8.24983 0.663036 8.06373C0.527686 7.87762 0.568832 7.61703 0.754938 7.48168L5.75494 3.84532Z" fill="white" fill-opacity="0.6"/>
<path id="Vector 5 (Stroke)" fill-rule="evenodd" clip-rule="evenodd" d="M5.75494 7.02696C5.90104 6.9207 6.09898 6.9207 6.24508 7.02696L11.2451 10.6633C11.4312 10.7987 11.4723 11.0593 11.337 11.2454C11.2016 11.4315 10.941 11.4726 10.7549 11.3373L6.00001 7.87914L1.24508 11.3373C1.05898 11.4726 0.798385 11.4315 0.663036 11.2454C0.527686 11.0593 0.568832 10.7987 0.754938 10.6633L5.75494 7.02696Z" fill="white" fill-opacity="0.3"/>
</g>
</svg>
