<svg width="14" height="14" viewBox="0 0 14 14" fill="none" xmlns="http://www.w3.org/2000/svg">
<path d="M13.707 11L5 2.293C4.80952 2.1112 4.55632 2.00976 4.293 2.00976C4.02968 2.00976 3.77648 2.1112 3.586 2.293L2.293 3.586C2.10577 3.77366 2.00063 4.02792 2.00063 4.293C2.00063 4.55808 2.10577 4.81234 2.293 5L10.9995 13.707C11.1872 13.8942 11.4414 13.9994 11.7065 13.9994C11.9716 13.9994 12.2258 13.8942 12.4135 13.707L13.707 12.414C13.8945 12.2265 13.9998 11.9722 13.9998 11.707C13.9998 11.4418 13.8945 11.1875 13.707 11ZM3 4.293L4.293 3L6.793 5.5L5.4995 6.7935L2.9995 4.2935L3 4.293ZM0 7L1 6L2 7L1 8L0 7ZM6 1L7 0L8 1L7 2L6 1ZM0 1L1 0L2 1L1 2L0 1Z" fill="#3D5AF1"/>
</svg>
