<svg width="16" height="16" viewBox="0 0 16 16" fill="none" xmlns="http://www.w3.org/2000/svg">
<path d="M13.4999 8.37996V7.61496L14.4599 6.77496C14.6368 6.61898 14.753 6.40547 14.7877 6.17216C14.8225 5.93885 14.7737 5.70075 14.6499 5.49996L13.4699 3.49996C13.3822 3.34809 13.2561 3.22195 13.1043 3.13419C12.9525 3.04643 12.7802 3.00014 12.6049 2.99996C12.4962 2.99913 12.3881 3.01601 12.2849 3.04996L11.0699 3.45996C10.8601 3.32056 10.6413 3.19529 10.4149 3.08496L10.1599 1.82496C10.1142 1.59476 9.98893 1.38798 9.80611 1.24081C9.62329 1.09364 9.39453 1.01546 9.15988 1.01996H6.81988C6.58523 1.01546 6.35647 1.09364 6.17365 1.24081C5.99084 1.38798 5.8656 1.59476 5.81988 1.82496L5.56488 3.08496C5.33685 3.19526 5.11637 3.32053 4.90488 3.45996L3.71488 3.02996C3.61053 3.00277 3.50247 2.99264 3.39488 2.99996C3.21952 3.00014 3.04729 3.04643 2.89546 3.13419C2.74364 3.22195 2.61756 3.34809 2.52988 3.49996L1.34988 5.49996C1.23318 5.70045 1.18981 5.93529 1.22721 6.16424C1.26461 6.3932 1.38044 6.60202 1.55488 6.75496L2.49988 7.61996V8.38496L1.55488 9.22496C1.37552 9.37896 1.25651 9.59153 1.21898 9.82493C1.18145 10.0583 1.22783 10.2975 1.34988 10.5L2.52988 12.5C2.61756 12.6518 2.74364 12.778 2.89546 12.8657C3.04729 12.9535 3.21952 12.9998 3.39488 13C3.50356 13.0008 3.61164 12.9839 3.71488 12.95L4.92988 12.54C5.13965 12.6794 5.35847 12.8046 5.58488 12.915L5.83988 14.175C5.8856 14.4052 6.01084 14.6119 6.19365 14.7591C6.37647 14.9063 6.60523 14.9845 6.83988 14.98H9.19988C9.43453 14.9845 9.66329 14.9063 9.84611 14.7591C10.0289 14.6119 10.1542 14.4052 10.1999 14.175L10.4549 12.915C10.6829 12.8047 10.9034 12.6794 11.1149 12.54L12.3249 12.95C12.4281 12.9839 12.5362 13.0008 12.6449 13C12.8202 12.9998 12.9925 12.9535 13.1443 12.8657C13.2961 12.778 13.4222 12.6518 13.5099 12.5L14.6499 10.5C14.7666 10.2995 14.81 10.0646 14.7726 9.83568C14.7352 9.60672 14.6193 9.3979 14.4449 9.24496L13.4999 8.37996ZM12.6049 12L10.8899 11.42C10.4884 11.76 10.0296 12.0258 9.53488 12.205L9.17988 14H6.81988L6.46488 12.225C5.97409 12.0407 5.51774 11.7754 5.11488 11.44L3.39488 12L2.21488 9.99996L3.57488 8.79996C3.48243 8.28239 3.48243 7.75253 3.57488 7.23496L2.21488 5.99996L3.39488 3.99996L5.10988 4.57996C5.51135 4.23991 5.97018 3.97409 6.46488 3.79496L6.81988 1.99996H9.17988L9.53488 3.77496C10.0257 3.95917 10.482 4.22453 10.8849 4.55996L12.6049 3.99996L13.7849 5.99996L12.4249 7.19996C12.5173 7.71753 12.5173 8.24739 12.4249 8.76496L13.7849 9.99996L12.6049 12Z" fill="#303030"/>
<path d="M8 11C7.40666 11 6.82664 10.8241 6.33329 10.4944C5.83994 10.1648 5.45543 9.69623 5.22836 9.14805C5.0013 8.59987 4.94189 7.99667 5.05765 7.41473C5.1734 6.83279 5.45912 6.29824 5.87868 5.87868C6.29824 5.45912 6.83279 5.1734 7.41473 5.05765C7.99667 4.94189 8.59987 5.0013 9.14805 5.22836C9.69623 5.45543 10.1648 5.83994 10.4944 6.33329C10.8241 6.82664 11 7.40666 11 8C11.004 8.39508 10.9292 8.78699 10.7798 9.15278C10.6305 9.51857 10.4096 9.85088 10.1303 10.1303C9.85088 10.4096 9.51857 10.6305 9.15278 10.7798C8.78699 10.9292 8.39508 11.004 8 11ZM8 6C7.73567 5.99384 7.47284 6.04137 7.22741 6.1397C6.98197 6.23803 6.75904 6.38512 6.57208 6.57208C6.38512 6.75904 6.23803 6.98197 6.1397 7.22741C6.04137 7.47284 5.99384 7.73567 6 8C5.99384 8.26433 6.04137 8.52716 6.1397 8.77259C6.23803 9.01803 6.38512 9.24097 6.57208 9.42792C6.75904 9.61488 6.98197 9.76198 7.22741 9.86031C7.47284 9.95864 7.73567 10.0062 8 10C8.26433 10.0062 8.52716 9.95864 8.77259 9.86031C9.01803 9.76198 9.24097 9.61488 9.42792 9.42792C9.61488 9.24097 9.76198 9.01803 9.86031 8.77259C9.95864 8.52716 10.0062 8.26433 10 8C10.0062 7.73567 9.95864 7.47284 9.86031 7.22741C9.76198 6.98197 9.61488 6.75904 9.42792 6.57208C9.24097 6.38512 9.01803 6.23803 8.77259 6.1397C8.52716 6.04137 8.26433 5.99384 8 6Z" fill="#303030"/>
</svg>
