<svg width="24" height="24" viewBox="0 0 24 24" fill="none" xmlns="http://www.w3.org/2000/svg">
<path d="M17.25 15.0002C16.6886 15.003 16.135 15.1318 15.6301 15.3771C15.1251 15.6225 14.6817 15.9781 14.3325 16.4177L8.85002 12.9902C9.04983 12.3453 9.04983 11.655 8.85002 11.0102L14.3325 7.58265C14.889 8.27169 15.6714 8.74154 16.5411 8.90896C17.4108 9.07638 18.3117 8.93058 19.0842 8.49737C19.8567 8.06417 20.4509 7.37152 20.7616 6.54214C21.0723 5.71276 21.0794 4.80017 20.7817 3.96603C20.484 3.13189 19.9007 2.43005 19.135 1.98483C18.3694 1.5396 17.4709 1.37974 16.5987 1.53356C15.7265 1.68737 14.9368 2.14493 14.3697 2.82519C13.8025 3.50545 13.4944 4.3645 13.5 5.25015C13.5036 5.58554 13.554 5.91877 13.65 6.24015L8.16752 9.66765C7.6835 9.05834 7.02192 8.61469 6.27448 8.3982C5.52704 8.18171 4.73076 8.2031 3.99603 8.45941C3.26129 8.71572 2.62448 9.19426 2.17388 9.82868C1.72328 10.4631 1.4812 11.222 1.4812 12.0002C1.4812 12.7783 1.72328 13.5372 2.17388 14.1716C2.62448 14.8061 3.26129 15.2846 3.99603 15.5409C4.73076 15.7972 5.52704 15.8186 6.27448 15.6021C7.02192 15.3856 7.6835 14.942 8.16752 14.3327L13.65 17.7602C13.554 18.0815 13.5036 18.4148 13.5 18.7502C13.5 19.4918 13.7199 20.2169 14.132 20.8335C14.5441 21.4502 15.1297 21.9309 15.815 22.2147C16.5002 22.4985 17.2542 22.5728 17.9816 22.4281C18.709 22.2834 19.3772 21.9263 19.9017 21.4018C20.4261 20.8774 20.7833 20.2092 20.928 19.4817C21.0727 18.7543 20.9984 18.0003 20.7146 17.3151C20.4307 16.6299 19.9501 16.0442 19.3334 15.6321C18.7167 15.2201 17.9917 15.0002 17.25 15.0002ZM17.25 3.00015C17.695 3.00015 18.13 3.13211 18.5 3.37935C18.8701 3.62658 19.1584 3.97798 19.3287 4.38912C19.499 4.80025 19.5436 5.25265 19.4568 5.68911C19.37 6.12556 19.1557 6.52648 18.841 6.84114C18.5263 7.15581 18.1254 7.3701 17.689 7.45692C17.2525 7.54374 16.8001 7.49918 16.389 7.32888C15.9778 7.15859 15.6264 6.8702 15.3792 6.50019C15.132 6.13018 15 5.69516 15 5.25015C15 4.65342 15.2371 4.08112 15.659 3.65916C16.081 3.23721 16.6533 3.00015 17.25 3.00015ZM5.25002 14.2502C4.80501 14.2502 4.36999 14.1182 3.99998 13.871C3.62997 13.6237 3.34158 13.2723 3.17129 12.8612C3.00099 12.4501 2.95643 11.9977 3.04325 11.5612C3.13007 11.1247 3.34436 10.7238 3.65903 10.4092C3.97369 10.0945 4.37461 9.8802 4.81106 9.79339C5.24752 9.70657 5.69992 9.75113 6.11105 9.92142C6.52219 10.0917 6.87359 10.3801 7.12082 10.7501C7.36806 11.1201 7.50002 11.5551 7.50002 12.0002C7.50002 12.5969 7.26296 13.1692 6.84101 13.5911C6.41905 14.0131 5.84675 14.2502 5.25002 14.2502ZM17.25 21.0002C16.805 21.0002 16.37 20.8682 16 20.621C15.63 20.3737 15.3416 20.0223 15.1713 19.6112C15.001 19.2001 14.9564 18.7477 15.0432 18.3112C15.1301 17.8747 15.3444 17.4738 15.659 17.1592C15.9737 16.8445 16.3746 16.6302 16.8111 16.5434C17.2475 16.4566 17.6999 16.5011 18.1111 16.6714C18.5222 16.8417 18.8736 17.1301 19.1208 17.5001C19.3681 17.8701 19.5 18.3051 19.5 18.7502C19.5 19.3469 19.263 19.9192 18.841 20.3411C18.4191 20.7631 17.8468 21.0002 17.25 21.0002Z" fill="#A0A0A0"/>
</svg>
